<?xml version="1.0" ?><svg viewBox="0 0 24 24" xmlns="http://www.w3.org/2000/svg"><title/><g id="Facebook"><path d="M21,1H3A2,2,0,0,0,1,3V21a2,2,0,0,0,2,2h7.5a.5.5,0,0,0,.5-.5v-7a.5.5,0,0,0-.5-.5h-1a.5.5,0,0,1-.5-.5v-3a.5.5,0,0,1,.5-.5h1a.5.5,0,0,0,.5-.5v-1A4.5,4.5,0,0,1,15.5,5h3a.5.5,0,0,1,.5.5v3a.5.5,0,0,1-.5.5h-3a.5.5,0,0,0-.5.5v1a.5.5,0,0,0,.5.5h3a.5.5,0,0,1,.49.58l-.5,3A.5.5,0,0,1,18,15H15.5a.5.5,0,0,0-.5.5v7a.5.5,0,0,0,.5.5H21a2,2,0,0,0,2-2V3A2,2,0,0,0,21,1Z" style="fill:#000"/></g></svg>
