<?xml version="1.0" ?><svg viewBox="0 0 24 24" xmlns="http://www.w3.org/2000/svg"><title/><g data-name="Github 1" id="Github_1"><path d="M12,0A12,12,0,0,0,0,12,12.25,12.25,0,0,0,9.39,24,.5.5,0,0,0,10,23.5v-3a.5.5,0,0,0-.5-.5h-1c-1.25,0-2.1-1.18-2.85-2.23l-.23-.32a7.53,7.53,0,0,1,1,.64,3.59,3.59,0,0,0,2.05.9h.15A1.37,1.37,0,0,0,10,17.5v-.35a.5.5,0,0,0-.36-.48C6.86,15.88,5,13.81,5,11.5A4.74,4.74,0,0,1,6.43,8.19a.5.5,0,0,0,.09-.56,2.8,2.8,0,0,1,.15-2.55A4.91,4.91,0,0,1,8.5,6.37a.5.5,0,0,0,.55.15,8.68,8.68,0,0,1,5.89,0,.5.5,0,0,0,.55-.15,4.91,4.91,0,0,1,1.83-1.29,2.8,2.8,0,0,1,.15,2.55.5.5,0,0,0,.09.56A4.74,4.74,0,0,1,19,11.5c0,2.42-2.07,4.59-5,5.27a.5.5,0,0,0-.33.72,4.3,4.3,0,0,1,.36,2v4a.5.5,0,0,0,.5.5h.11A12.25,12.25,0,0,0,24,12,12,12,0,0,0,12,0Z" style="fill:#000"/></g></svg>
