<?xml version="1.0" ?><svg viewBox="0 0 24 24" xmlns="http://www.w3.org/2000/svg"><title/><g id="LinkedIn"><path d="M21,1H3A2,2,0,0,0,1,3V21a2,2,0,0,0,2,2H21a2,2,0,0,0,2-2V3A2,2,0,0,0,21,1ZM8,19.5a.5.5,0,0,1-.5.5h-3a.5.5,0,0,1-.5-.5V9.5A.5.5,0,0,1,4.5,9h3a.5.5,0,0,1,.5.5ZM6,8A2,2,0,1,1,8,6,2,2,0,0,1,6,8ZM20,19.5a.5.5,0,0,1-.5.5h-3a.5.5,0,0,1-.5-.5V14c0-1.25-.56-2-1.5-2s-1.5.75-1.5,2v5.5a.5.5,0,0,1-.5.5h-3a.5.5,0,0,1-.5-.5V9.5A.5.5,0,0,1,9.5,9h3a.5.5,0,0,1,.5.5v.31A3.83,3.83,0,0,1,15.5,9c2.73,0,4.5,2,4.5,5Z" style="fill:#000"/></g></svg>
