<svg id="svg" version="1.1" width="400" height="400" viewBox="0 0 400 400" xmlns="http://www.w3.org/2000/svg" xmlns:xlink="http://www.w3.org/1999/xlink" ><g id="svgg"><path id="path0" d="M241.750 77.250 L 241.750 116.750 281.312 116.750 L 320.874 116.750 281.375 77.250 C 259.650 55.525,241.847 37.750,241.813 37.750 C 241.778 37.750,241.750 55.525,241.750 77.250 M115.000 233.500 L 115.000 275.000 123.375 275.000 L 131.750 275.000 131.750 260.375 L 131.750 245.750 138.982 245.750 C 150.120 245.750,154.150 244.917,159.447 241.519 C 173.979 232.197,173.821 206.508,159.170 196.523 C 153.281 192.510,150.002 192.005,129.813 192.002 L 115.000 192.000 115.000 233.500 M181.500 233.479 L 181.500 275.000 193.487 275.000 C 202.702 275.000,206.136 274.913,208.334 274.625 C 222.455 272.774,231.793 263.629,234.529 248.973 C 235.182 245.472,235.512 227.152,235.014 222.048 C 233.446 205.993,224.538 195.433,210.164 192.590 C 208.495 192.260,205.709 192.166,194.813 192.073 L 181.500 191.958 181.500 233.479 M247.250 233.500 L 247.250 275.000 255.625 275.000 L 264.000 275.000 264.000 258.125 L 264.000 241.250 277.000 241.250 L 290.000 241.250 290.000 234.250 L 290.000 227.250 277.000 227.250 L 264.000 227.250 264.000 216.625 L 264.000 206.000 278.625 206.000 L 293.250 206.000 293.250 199.000 L 293.250 192.000 270.250 192.000 L 247.250 192.000 247.250 233.500 M147.055 206.795 C 155.034 210.535,155.536 227.126,147.785 230.932 L 146.375 231.625 139.063 231.701 L 131.750 231.778 131.750 218.871 L 131.750 205.965 138.688 206.045 C 145.613 206.125,145.627 206.126,147.055 206.795 M207.250 206.358 C 213.712 207.530,216.470 210.665,217.932 218.500 C 218.585 222.001,218.596 245.214,217.946 248.625 C 216.142 258.091,212.396 261.000,202.011 261.000 L 198.000 261.000 198.000 233.667 C 198.000 218.633,198.075 206.258,198.167 206.167 C 198.468 205.866,205.334 206.010,207.250 206.358 " stroke="none" fill="#ffffff" fill-rule="evenodd"></path><path id="path1" d="M66.500 200.000 L 66.500 375.000 200.000 375.000 L 333.500 375.000 333.500 241.687 L 333.500 108.374 291.812 66.687 L 250.124 25.000 158.312 25.000 L 66.500 25.000 66.500 200.000 M281.375 77.250 L 320.874 116.750 281.312 116.750 L 241.750 116.750 241.750 77.250 C 241.750 55.525,241.778 37.750,241.813 37.750 C 241.847 37.750,259.650 55.525,281.375 77.250 M146.875 192.257 C 161.324 193.880,170.138 204.264,170.104 219.625 C 170.082 229.565,166.450 237.027,159.447 241.519 C 154.150 244.917,150.120 245.750,138.982 245.750 L 131.750 245.750 131.750 260.375 L 131.750 275.000 123.375 275.000 L 115.000 275.000 115.000 233.500 L 115.000 192.000 129.813 192.002 C 138.127 192.003,145.612 192.115,146.875 192.257 M210.164 192.590 C 224.538 195.433,233.446 205.993,235.014 222.048 C 235.512 227.152,235.182 245.472,234.529 248.973 C 231.793 263.629,222.455 272.774,208.334 274.625 C 206.136 274.913,202.702 275.000,193.487 275.000 L 181.500 275.000 181.500 233.479 L 181.500 191.958 194.813 192.073 C 205.709 192.166,208.495 192.260,210.164 192.590 M293.250 199.000 L 293.250 206.000 278.625 206.000 L 264.000 206.000 264.000 216.625 L 264.000 227.250 277.000 227.250 L 290.000 227.250 290.000 234.250 L 290.000 241.250 277.000 241.250 L 264.000 241.250 264.000 258.125 L 264.000 275.000 255.625 275.000 L 247.250 275.000 247.250 233.500 L 247.250 192.000 270.250 192.000 L 293.250 192.000 293.250 199.000 M131.750 218.871 L 131.750 231.778 139.063 231.701 L 146.375 231.625 147.785 230.932 C 155.536 227.126,155.034 210.535,147.055 206.795 C 145.627 206.126,145.613 206.125,138.688 206.045 L 131.750 205.965 131.750 218.871 M198.167 206.167 C 198.075 206.258,198.000 218.633,198.000 233.667 L 198.000 261.000 202.011 261.000 C 212.396 261.000,216.142 258.091,217.946 248.625 C 218.596 245.214,218.585 222.001,217.932 218.500 C 216.470 210.665,213.712 207.530,207.250 206.358 C 205.334 206.010,198.468 205.866,198.167 206.167 " stroke="none" fill="#000000" fill-rule="evenodd"></path><path id="path2" d="" stroke="none" fill="#000000" fill-rule="evenodd"></path><path id="path3" d="" stroke="none" fill="#000000" fill-rule="evenodd"></path><path id="path4" d="" stroke="none" fill="#000000" fill-rule="evenodd"></path><path id="path5" d="" stroke="none" fill="#ffffff" fill-rule="evenodd"></path><path id="path6" d="" stroke="none" fill="#ffffff" fill-rule="evenodd"></path><path id="path7" d="" stroke="none" fill="#ffffff" fill-rule="evenodd"></path><path id="path8" d="" stroke="none" fill="#ffffff" fill-rule="evenodd"></path></g></svg>