<?xml version="1.0" encoding="UTF-8"?><svg fill="none" height="32" width="32" xmlns="http://www.w3.org/2000/svg" viewBox="0 0 32 32"><g clip-path="url(#clip0_960_1454)"><path d="M2.89506 22.9893C-0.965021 19.1292 -0.965021 12.8708 2.89506 9.0107L9.0107 2.89506C12.8708 -0.965021 19.1292 -0.965021 22.9893 2.89506L29.1049 9.0107C32.965 12.8708 32.965 19.1292 29.1049 22.9893L22.9893 29.1049C19.1292 32.965 12.8708 32.965 9.0107 29.1049L2.89506 22.9893Z" fill="url(#paint0_linear_960_1454)"></path><path d="M20.1119 4.73657C20.7784 5.40306 20.7784 6.48366 20.1119 7.15016L12.737 14.525C12.4161 14.8459 12.4161 15.3662 12.737 15.6871C13.0579 16.008 13.5782 16.008 13.8991 15.6871L15.687 13.8993C17.3409 12.2454 20.0224 12.2454 21.6762 13.8993C23.3301 15.5532 23.3301 18.2347 21.6762 19.8886L14.3014 27.2634C13.6349 27.9299 12.5543 27.9299 11.8878 27.2634C11.2213 26.5969 11.2213 25.5163 11.8878 24.8498L19.2627 17.475C19.5836 17.1541 19.5836 16.6338 19.2627 16.3129C18.9418 15.992 18.4215 15.992 18.1006 16.3129L16.3127 18.1007C14.6588 19.7546 11.9773 19.7546 10.3234 18.1007C8.66953 16.4468 8.66953 13.7653 10.3234 12.1114L17.6983 4.73657C18.3648 4.07007 19.4454 4.07007 20.1119 4.73657Z" fill="white" clip-rule="evenodd" fill-rule="evenodd"></path></g><defs><linearGradient id="paint0_linear_960_1454" gradientUnits="userSpaceOnUse" x1="16.0091" x2="16.0091" y1="-0.0546868" y2="31.915"><stop stop-color="#71A1FF"></stop><stop stop-color="#2972FF" offset="1"></stop></linearGradient><clipPath id="clip0_960_1454"><rect fill="white" height="32" width="32"></rect></clipPath></defs></svg>